<svg xmlns:mydata="http://www.w3.org/2000/svg" mydata:contrastcolor="ffffff" mydata:template="SingleColorHex1" mydata:presentation="2.5" mydata:layouttype="undefined" mydata:specialfontid="undefined" mydata:id1="105" mydata:id2="854" mydata:companyname="Мир Свечи" mydata:companytagline="" version="1.1" xmlns="http://www.w3.org/2000/svg" xmlns:xlink="http://www.w3.org/1999/xlink" viewBox="53 115 440 240">

<g fill="none" fill-rule="none" stroke="none" stroke-width="1" stroke-linecap="butt" stroke-linejoin="miter" stroke-miterlimit="10" stroke-dasharray="" stroke-dashoffset="0" font-family="none" font-weight="none" font-size="none" text-anchor="none" style="mix-blend-mode: normal">

<g data-paper-data="{&quot;isGlobalGroup&quot;:true,&quot;bounds&quot;:{&quot;x&quot;:65,&quot;y&quot;:122.06296362013188,&quot;width&quot;:420,&quot;height&quot;:225.87407275973624}}">

<g data-paper-data="{&quot;isPrimaryText&quot;:true}" fill-rule="nonzero">

<path d="M96.00206,346.72467h0.28866c0.26942,0 0.51959,-0.11546 0.75052,-0.34639c0.23093,-0.23093 0.43299,-0.50034 0.60619,-0.80825c0.1732,-0.3079 0.29828,-0.64467 0.37526,-1.01031c0.07698,-0.36564 0.11546,-0.70241 0.11546,-1.01031v-30.36701l-14.89485,34.75464l-14.14433,-32.96495v28.57732c0,0.3079 0.03849,0.64467 0.11546,1.01031c0.07698,0.36564 0.20206,0.70241 0.37526,1.01031c0.1732,0.3079 0.37526,0.57732 0.60619,0.80825c0.23093,0.23093 0.50034,0.34639 0.80825,0.34639h0.28866v0.57732h-6.29278v-0.57732h0.28866c0.26942,0 0.51959,-0.11546 0.75052,-0.34639c0.23093,-0.23093 0.42337,-0.50034 0.57732,-0.80825c0.15395,-0.3079 0.26942,-0.64467 0.34639,-1.01031c0.07698,-0.36564 0.11546,-0.70241 0.11546,-1.01031v-30.77113c0,-0.26942 -0.03849,-0.57732 -0.11546,-0.92371c-0.07698,-0.34639 -0.19244,-0.67354 -0.34639,-0.98144c-0.15395,-0.3079 -0.34639,-0.5677 -0.57732,-0.77938c-0.23093,-0.21168 -0.4811,-0.31753 -0.75052,-0.31753h-0.28866v-0.57732h5.88866l13.39381,31.57938l13.39381,-31.57938h6.52371v0.57732h-0.28866c-0.3079,0 -0.57732,0.10584 -0.80825,0.31753c-0.23093,0.21168 -0.43299,0.47148 -0.60619,0.77938c-0.1732,0.3079 -0.29828,0.63505 -0.37526,0.98144c-0.07698,0.34639 -0.11546,0.6543 -0.11546,0.92371v30.77113c0,0.3079 0.03849,0.64467 0.11546,1.01031c0.07698,0.36564 0.20206,0.70241 0.37526,1.01031c0.1732,0.3079 0.37526,0.57732 0.60619,0.80825c0.23093,0.23093 0.50034,0.34639 0.80825,0.34639h0.28866v0.57732h-8.19794z" data-paper-data="{&quot;glyphName&quot;:&quot;М&quot;,&quot;glyphIndex&quot;:0,&quot;firstGlyphOfWord&quot;:true,&quot;word&quot;:1}" fill="#816040"></path>

<path d="M150.81856,346.72467h0.28866c0.3079,0 0.57732,-0.10584 0.80825,-0.31753c0.23093,-0.21168 0.43299,-0.4811 0.60619,-0.80825c0.1732,-0.32715 0.29828,-0.67354 0.37526,-1.03918c0.07698,-0.36564 0.11546,-0.70241 0.11546,-1.01031v-26.44124l-19.16701,25.92165v0.51959c0,0.3079 0.04811,0.64467 0.14433,1.01031c0.09622,0.36564 0.22131,0.70241 0.37526,1.01031c0.15395,0.3079 0.34639,0.57732 0.57732,0.80825c0.23093,0.23093 0.50034,0.34639 0.80825,0.34639h0.28866v0.57732h-8.19794v-0.57732h0.28866c0.3079,0 0.57732,-0.10584 0.80825,-0.31753c0.23093,-0.21168 0.43299,-0.4811 0.60619,-0.80825c0.1732,-0.32715 0.29828,-0.67354 0.37526,-1.03918c0.07698,-0.36564 0.11546,-0.70241 0.11546,-1.01031v-30.77113c0,-0.26942 -0.03849,-0.57732 -0.11546,-0.92371c-0.07698,-0.34639 -0.20206,-0.67354 -0.37526,-0.98144c-0.1732,-0.3079 -0.37526,-0.5677 -0.60619,-0.77938c-0.23093,-0.21168 -0.50034,-0.31753 -0.80825,-0.31753h-0.28866v-0.57732h8.19794v0.57732h-0.46186c-0.26942,0.03849 -0.50997,0.1732 -0.72165,0.40412c-0.21168,0.23093 -0.3945,0.49072 -0.54845,0.77938c-0.15395,0.28866 -0.26942,0.59656 -0.34639,0.92371c-0.07698,0.32715 -0.11546,0.62543 -0.11546,0.89485v26.67216l19.16701,-25.92165v-0.75052c0,-0.26942 -0.03849,-0.57732 -0.11546,-0.92371c-0.07698,-0.34639 -0.20206,-0.67354 -0.37526,-0.98144c-0.1732,-0.3079 -0.37526,-0.5677 -0.60619,-0.77938c-0.23093,-0.21168 -0.50034,-0.31753 -0.80825,-0.31753h-0.28866v-0.57732h8.19794v0.57732h-0.28866c-0.3079,0 -0.57732,0.10584 -0.80825,0.31753c-0.23093,0.21168 -0.42337,0.47148 -0.57732,0.77938c-0.15395,0.3079 -0.27904,0.63505 -0.37526,0.98144c-0.09622,0.34639 -0.14433,0.6543 -0.14433,0.92371v30.77113c0,0.3079 0.04811,0.63505 0.14433,0.98144c0.09622,0.34639 0.22131,0.68316 0.37526,1.01031c0.15395,0.32715 0.34639,0.60619 0.57732,0.83711c0.23093,0.23093 0.50034,0.34639 0.80825,0.34639h0.28866v0.57732h-8.19794z" data-paper-data="{&quot;glyphName&quot;:&quot;И&quot;,&quot;glyphIndex&quot;:1,&quot;word&quot;:1}" fill="#816040">

</path><path d="M182.48454,309.19889h8.19794c4.27216,0 7.51478,0.81787 9.72784,2.45361c2.21306,1.63574 3.31959,3.95464 3.31959,6.9567c0,1.61649 -0.38488,3.05979 -1.15464,4.3299c-0.76976,1.2701 -1.78007,2.33814 -3.03093,3.20412c-1.25086,0.86598 -2.65567,1.5299 -4.21443,1.99175c-1.55876,0.46186 -3.1079,0.69278 -4.64742,0.69278h-2.19381v14.72165c0,0.3079 0.03849,0.64467 0.11546,1.01031c0.07698,0.36564 0.20206,0.70241 0.37526,1.01031c0.1732,0.3079 0.36564,0.57732 0.57732,0.80825c0.21168,0.23093 0.47148,0.34639 0.77938,0.34639h0.28866v0.57732h-8.14021v-0.57732h0.28866c0.26942,0 0.51959,-0.11546 0.75052,-0.34639c0.23093,-0.23093 0.42337,-0.50034 0.57732,-0.80825c0.15395,-0.3079 0.26942,-0.64467 0.34639,-1.01031c0.07698,-0.36564 0.11546,-0.70241 0.11546,-1.01031v-30.77113c0,-0.53883 -0.15395,-1.15464 -0.46186,-1.84742c-0.3079,-0.69278 -0.75052,-1.07766 -1.32784,-1.15464h-0.28866zM188.48866,311.21951v15.58763h1.73196c1.53952,0 2.91546,-0.21168 4.12784,-0.63505c1.21237,-0.42337 2.22268,-0.98144 3.03093,-1.67423c0.80825,-0.69278 1.42405,-1.48179 1.84742,-2.36701c0.42337,-0.88522 0.63505,-1.78969 0.63505,-2.7134c0,-1.11615 -0.18282,-2.16495 -0.54845,-3.14639c-0.36564,-0.98144 -0.9622,-1.84742 -1.78969,-2.59794c-0.82749,-0.75052 -1.91478,-1.34708 -3.26186,-1.78969c-1.34708,-0.44261 -3.00206,-0.66392 -4.96495,-0.66392z" data-paper-data="{&quot;glyphName&quot;:&quot;Р&quot;,&quot;glyphIndex&quot;:2,&quot;lastGlyphOfWord&quot;:true,&quot;word&quot;:1}" fill="#816040">

</path><path d="M280.05155,310.69992c-2.84811,0 -5.32096,0.50997 -7.41856,1.5299c-2.09759,1.01993 -3.83918,2.34777 -5.22474,3.98351c-1.38557,1.63574 -2.41512,3.47354 -3.08866,5.5134c-0.67354,2.03986 -1.01031,4.06048 -1.01031,6.06186c0,2.27079 0.44261,4.49347 1.32784,6.66804c0.88522,2.17457 2.10722,4.09897 3.66598,5.7732c1.55876,1.67423 3.37732,3.02131 5.45567,4.04124c2.07835,1.01993 4.3299,1.5299 6.75464,1.5299c0.69278,0 1.51065,-0.07698 2.45361,-0.23093c0.94296,-0.15395 1.87629,-0.45223 2.8,-0.89485c0.92371,-0.44261 1.78007,-1.06804 2.56907,-1.87629c0.789,-0.80825 1.39519,-1.86667 1.81856,-3.17526h0.57732v6.40825c-0.57732,0 -1.18351,0.07698 -1.81856,0.23093c-0.63505,0.15395 -1.33746,0.32715 -2.10722,0.51959c-1.00069,0.26942 -2.10722,0.51959 -3.31959,0.75052c-1.21237,0.23093 -2.4921,0.34639 -3.83918,0.34639c-3.34845,0 -6.29278,-0.57732 -8.83299,-1.73196c-2.54021,-1.15464 -4.65704,-2.65567 -6.35052,-4.50309c-1.69347,-1.84742 -2.96357,-3.9354 -3.81031,-6.26392c-0.84674,-2.32852 -1.2701,-4.68591 -1.2701,-7.07216c0,-2.38625 0.42337,-4.75326 1.2701,-7.10103c0.84674,-2.34777 2.13608,-4.45498 3.86804,-6.32165c1.73196,-1.86667 3.90653,-3.37732 6.52371,-4.53196c2.61718,-1.15464 5.69622,-1.73196 9.23711,-1.73196c1.2701,0 2.41512,0.11546 3.43505,0.34639c1.01993,0.23093 1.93402,0.46186 2.74227,0.69278c0.57732,0.19244 1.10653,0.33677 1.58763,0.43299c0.4811,0.09622 0.95258,0.14433 1.41443,0.14433v6.40825h-0.57732c-0.23093,-1.19313 -0.6543,-2.18419 -1.2701,-2.9732c-0.61581,-0.789 -1.33746,-1.39519 -2.16495,-1.81856c-0.82749,-0.42337 -1.71271,-0.72165 -2.65567,-0.89485c-0.94296,-0.1732 -1.85704,-0.25979 -2.74227,-0.25979z" data-paper-data="{&quot;glyphName&quot;:&quot;С&quot;,&quot;glyphIndex&quot;:3,&quot;firstGlyphOfWord&quot;:true,&quot;word&quot;:2}" fill="#816040">

</path><path d="M313.73814,346.72467h0.28866c0.26942,0 0.51959,-0.11546 0.75052,-0.34639c0.23093,-0.23093 0.43299,-0.50034 0.60619,-0.80825c0.1732,-0.3079 0.29828,-0.64467 0.37526,-1.01031c0.07698,-0.36564 0.11546,-0.70241 0.11546,-1.01031v-30.7134c0,-0.26942 -0.03849,-0.57732 -0.11546,-0.92371c-0.07698,-0.34639 -0.20206,-0.68316 -0.37526,-1.01031c-0.1732,-0.32715 -0.38488,-0.59656 -0.63505,-0.80825c-0.25017,-0.21168 -0.52921,-0.31753 -0.83711,-0.31753h-0.28866v-0.57732h9.46804c3.57938,0 6.37938,0.789 8.4,2.36701c2.02062,1.57801 3.03093,3.6756 3.03093,6.29278c0,1.11615 -0.19244,2.11684 -0.57732,3.00206c-0.38488,0.88522 -0.8756,1.67423 -1.47216,2.36701c-0.59656,0.69278 -1.24124,1.27973 -1.93402,1.76082c-0.69278,0.4811 -1.34708,0.8756 -1.96289,1.18351c1.61649,0.3079 2.96357,0.82749 4.04124,1.55876c1.07766,0.73127 1.95326,1.56838 2.6268,2.51134c0.67354,0.94296 1.14502,1.95326 1.41443,3.03093c0.26942,1.07766 0.40412,2.13608 0.40412,3.17526c0,2.00137 -0.36564,3.68522 -1.09691,5.05155c-0.73127,1.36632 -1.70309,2.48247 -2.91546,3.34845c-1.21237,0.86598 -2.59794,1.49141 -4.1567,1.87629c-1.55876,0.38488 -3.16564,0.57732 -4.82062,0.57732h-10.33402zM333.13608,336.79477c-0.3079,-2.96357 -1.30859,-5.25361 -3.00206,-6.8701c-1.69347,-1.61649 -4.07973,-2.42474 -7.15876,-2.42474h-3.23299v17.89691h3.34845c3.11753,0 5.57113,-0.70241 7.36082,-2.10722c1.78969,-1.40481 2.68454,-3.35808 2.68454,-5.85979zM330.76907,318.37827c-0.11546,-2.2323 -0.89485,-4.00275 -2.33814,-5.31134c-1.4433,-1.30859 -3.37732,-1.96289 -5.80206,-1.96289h-2.8866v14.54845h3.00206c1.61649,0 2.93471,-0.21168 3.95464,-0.63505c1.01993,-0.42337 1.8378,-0.97182 2.45361,-1.64536c0.61581,-0.67354 1.03918,-1.41443 1.2701,-2.22268c0.23093,-0.80825 0.34639,-1.59725 0.34639,-2.36701z" data-paper-data="{&quot;glyphName&quot;:&quot;В&quot;,&quot;glyphIndex&quot;:4,&quot;word&quot;:2}" fill="#816040">

</path><path d="M360.01031,346.72467h0.28866c0.3079,0 0.57732,-0.10584 0.80825,-0.31753c0.23093,-0.21168 0.43299,-0.47148 0.60619,-0.77938c0.1732,-0.3079 0.3079,-0.63505 0.40412,-0.98144c0.09622,-0.34639 0.14433,-0.67354 0.14433,-0.98144v-30.8866c0,-0.26942 -0.04811,-0.57732 -0.14433,-0.92371c-0.09622,-0.34639 -0.23093,-0.67354 -0.40412,-0.98144c-0.1732,-0.3079 -0.37526,-0.5677 -0.60619,-0.77938c-0.23093,-0.21168 -0.50034,-0.31753 -0.80825,-0.31753h-0.28866v-0.57732h22.2268v5.36907h-0.57732c-0.07698,-0.88522 -0.42337,-1.6646 -1.03918,-2.33814c-0.61581,-0.67354 -1.57801,-1.01031 -2.8866,-1.01031h-11.60412v14.60619h9.58351c0.88522,0 1.62612,-0.26942 2.22268,-0.80825c0.59656,-0.53883 0.89485,-1.17388 0.89485,-1.90515h0.57732v7.21649h-0.57732c0,-0.69278 -0.28866,-1.28935 -0.86598,-1.78969c-0.57732,-0.50034 -1.32784,-0.75052 -2.25155,-0.75052h-9.58351v17.49278h12.6433c0.73127,0 1.36632,-0.1732 1.90515,-0.51959c0.53883,-0.34639 0.99107,-0.76014 1.3567,-1.24124c0.36564,-0.4811 0.63505,-1.00069 0.80825,-1.55876c0.1732,-0.55808 0.25979,-1.02955 0.25979,-1.41443h0.57732v6.75464h-23.6701z" data-paper-data="{&quot;glyphName&quot;:&quot;Е&quot;,&quot;glyphIndex&quot;:5,&quot;word&quot;:2}" fill="#816040"></path>

<path d="M422.10103,346.72467h0.28866c0.26942,0 0.51959,-0.10584 0.75052,-0.31753c0.23093,-0.21168 0.43299,-0.47148 0.60619,-0.77938c0.1732,-0.3079 0.29828,-0.63505 0.37526,-0.98144c0.07698,-0.34639 0.11546,-0.67354 0.11546,-0.98144v-15.3567c-0.76976,0.57732 -1.80893,1.1354 -3.11753,1.67423c-1.30859,0.53883 -2.69416,0.80825 -4.1567,0.80825c-1.73196,0 -3.30034,-0.29828 -4.70515,-0.89485c-1.40481,-0.59656 -2.59794,-1.41443 -3.57938,-2.45361c-0.98144,-1.03918 -1.73196,-2.24192 -2.25155,-3.60825c-0.51959,-1.36632 -0.77938,-2.81924 -0.77938,-4.35876v-6.69691c0,-0.26942 -0.03849,-0.57732 -0.11546,-0.92371c-0.07698,-0.34639 -0.18282,-0.67354 -0.31753,-0.98144c-0.13471,-0.3079 -0.3079,-0.5677 -0.51959,-0.77938c-0.21168,-0.21168 -0.43299,-0.31753 -0.66392,-0.31753h-0.28866v-0.57732h8.02474v0.57732h-0.28866c-0.3079,0 -0.57732,0.10584 -0.80825,0.31753c-0.23093,0.21168 -0.43299,0.47148 -0.60619,0.77938c-0.1732,0.3079 -0.3079,0.63505 -0.40412,0.98144c-0.09622,0.34639 -0.14433,0.6543 -0.14433,0.92371v7.0433c0,1.2701 0.25017,2.42474 0.75052,3.46392c0.50034,1.03918 1.15464,1.93402 1.96289,2.68454c0.80825,0.75052 1.72234,1.32784 2.74227,1.73196c1.01993,0.40412 2.04948,0.60619 3.08866,0.60619c1.03918,0 2.09759,-0.25017 3.17526,-0.75052c1.07766,-0.50034 2.07835,-1.07766 3.00206,-1.73196v-13.04742c0,-0.26942 -0.03849,-0.5677 -0.11546,-0.89485c-0.07698,-0.32715 -0.18282,-0.63505 -0.31753,-0.92371c-0.13471,-0.28866 -0.29828,-0.54845 -0.49072,-0.77938c-0.19244,-0.23093 -0.42337,-0.36564 -0.69278,-0.40412h-0.46186v-0.57732h8.19794v0.57732h-0.46186c-0.26942,0.03849 -0.51959,0.1732 -0.75052,0.40412c-0.23093,0.23093 -0.42337,0.49072 -0.57732,0.77938c-0.15395,0.28866 -0.26942,0.59656 -0.34639,0.92371c-0.07698,0.32715 -0.11546,0.62543 -0.11546,0.89485v30.8866c0,0.26942 0.03849,0.57732 0.11546,0.92371c0.07698,0.34639 0.19244,0.66392 0.34639,0.95258c0.15395,0.28866 0.34639,0.54845 0.57732,0.77938c0.23093,0.23093 0.4811,0.36564 0.75052,0.40412h0.46186v0.57732h-8.25567z" data-paper-data="{&quot;glyphName&quot;:&quot;Ч&quot;,&quot;glyphIndex&quot;:6,&quot;word&quot;:2}" fill="#816040"></path>

<path d="M476.80206,346.72467h0.28866c0.3079,0 0.57732,-0.10584 0.80825,-0.31753c0.23093,-0.21168 0.43299,-0.4811 0.60619,-0.80825c0.1732,-0.32715 0.29828,-0.67354 0.37526,-1.03918c0.07698,-0.36564 0.11546,-0.70241 0.11546,-1.01031v-26.44124l-19.16701,25.92165v0.51959c0,0.3079 0.04811,0.64467 0.14433,1.01031c0.09622,0.36564 0.22131,0.70241 0.37526,1.01031c0.15395,0.3079 0.34639,0.57732 0.57732,0.80825c0.23093,0.23093 0.50034,0.34639 0.80825,0.34639h0.28866v0.57732h-8.19794v-0.57732h0.28866c0.3079,0 0.57732,-0.10584 0.80825,-0.31753c0.23093,-0.21168 0.43299,-0.4811 0.60619,-0.80825c0.1732,-0.32715 0.29828,-0.67354 0.37526,-1.03918c0.07698,-0.36564 0.11546,-0.70241 0.11546,-1.01031v-30.77113c0,-0.26942 -0.03849,-0.57732 -0.11546,-0.92371c-0.07698,-0.34639 -0.20206,-0.67354 -0.37526,-0.98144c-0.1732,-0.3079 -0.37526,-0.5677 -0.60619,-0.77938c-0.23093,-0.21168 -0.50034,-0.31753 -0.80825,-0.31753h-0.28866v-0.57732h8.19794v0.57732h-0.46186c-0.26942,0.03849 -0.50997,0.1732 -0.72165,0.40412c-0.21168,0.23093 -0.3945,0.49072 -0.54845,0.77938c-0.15395,0.28866 -0.26942,0.59656 -0.34639,0.92371c-0.07698,0.32715 -0.11546,0.62543 -0.11546,0.89485v26.67216l19.16701,-25.92165v-0.75052c0,-0.26942 -0.03849,-0.57732 -0.11546,-0.92371c-0.07698,-0.34639 -0.20206,-0.67354 -0.37526,-0.98144c-0.1732,-0.3079 -0.37526,-0.5677 -0.60619,-0.77938c-0.23093,-0.21168 -0.50034,-0.31753 -0.80825,-0.31753h-0.28866v-0.57732h8.19794v0.57732h-0.28866c-0.3079,0 -0.57732,0.10584 -0.80825,0.31753c-0.23093,0.21168 -0.42337,0.47148 -0.57732,0.77938c-0.15395,0.3079 -0.27904,0.63505 -0.37526,0.98144c-0.09622,0.34639 -0.14433,0.6543 -0.14433,0.92371v30.77113c0,0.3079 0.04811,0.63505 0.14433,0.98144c0.09622,0.34639 0.22131,0.68316 0.37526,1.01031c0.15395,0.32715 0.34639,0.60619 0.57732,0.83711c0.23093,0.23093 0.50034,0.34639 0.80825,0.34639h0.28866v0.57732h-8.19794z" data-paper-data="{&quot;glyphName&quot;:&quot;И&quot;,&quot;glyphIndex&quot;:7,&quot;lastGlyphOfWord&quot;:true,&quot;word&quot;:2}" fill="#816040"></path>

</g>

<g data-paper-data="{&quot;isIcon&quot;:&quot;true&quot;,&quot;iconType&quot;:&quot;icon&quot;,&quot;rawIconId&quot;:&quot;LQoG4hG6uQFjprwXjvvlXjF24obzPSjjWwJI8xBoFJ&quot;,&quot;source&quot;:&quot;ai&quot;,&quot;selectedEffects&quot;:{&quot;container&quot;:&quot;&quot;,&quot;transformation&quot;:&quot;&quot;,&quot;pattern&quot;:&quot;&quot;},&quot;isDetailed&quot;:false,&quot;fillRule&quot;:&quot;evenodd&quot;,&quot;bounds&quot;:{&quot;x&quot;:205.11018275755288,&quot;y&quot;:122.06296362013188,&quot;width&quot;:139.7796344848942,&quot;height&quot;:145.07095494692715},&quot;iconStyle&quot;:&quot;standalone&quot;,&quot;suitableAsStandaloneIcon&quot;:true}" fill-rule="evenodd"><g data-paper-data="{&quot;isPathIcon&quot;:true}"><path d="M264.49702,122.18504c-0.101,0.1 -0.183,2.684 -0.184,5.741c-0.001,9.14499 -0.785,14.80299 -2.949,21.29598c-1.515,4.544 -3.332,8.44899 -6.93699,14.90799c-5.895,10.56199 -8.38099,16.46299 -9.99899,23.73298c-0.798,3.587 -0.808,11.15399 -0.019,14.78599c1.913,8.80399 7.30399,16.20799 14.51299,19.93398c4.272,2.208 9.51299,3.195 9.51299,1.792c0,-0.579 -1.049,-1.39 -3.209,-2.482c-5.018,-2.538 -8.84999,-5.851 -11.70499,-10.12099c-1.963,-2.935 -3.132,-5.553 -4.075,-9.12199c-0.957,-3.623 -1.115,-9.60599 -0.357,-13.56299c1.285,-6.71799 3.452,-12.11099 8.78799,-21.86898c4.518,-8.26199 6.74299,-13.35699 7.98299,-18.28199c0.988,-3.923 1.541,-8.04199 1.563,-11.63599c0.024,-4.193 0.182,-4.407 1.24,-1.682c0.48,1.234 2.697,6.82199 4.927,12.41699c10.42199,26.14898 13.18899,36.03197 13.19499,47.12796c0.004,6.63399 -1.033,11.33899 -3.59,16.28999c-2.306,4.465 -5.093,7.62499 -8.96599,10.16699c-2.308,1.515 -2.962,2.107 -2.962,2.684c0,1.723 5.446,0.112 9.19399,-2.721c8.24899,-6.23399 12.61699,-17.90899 11.42799,-30.54098c-1.275,-13.52699 -8.96499,-34.63797 -22.27998,-61.16295c-3.015,-6.006 -3.995,-7.74299 -4.404,-7.80099c-0.289,-0.042 -0.608,0.007 -0.708,0.107z" fill="#816040"></path>

<path d="M344.68395,211.79496c0.012,0.3 0.073,0.361 0.155,0.156c0.075,-0.186 0.066,-0.409 -0.02,-0.494c-0.086,-0.085 -0.146,0.066 -0.135,0.338z" fill="#816040"></path>

<path d="M335.45396,231.21695c3.069,-4.654 7.07099,-12.81499 8.56499,-17.46399c0.242,-0.753 0.488,-1.32 0.548,-1.261c0.059,0.06 -0.255,1.139 -0.699,2.399c-4.715,13.39199 -12.75999,25.22598 -23.28398,34.24897c-10.02999,8.60099 -23.01998,14.55699 -36.69797,16.82699c-6.45599,1.071 -7.62599,1.167 -14.16399,1.167c-8.15499,0.001 -13.51199,-0.679 -21.03198,-2.668c-9.35499,-2.475 -19.59298,-7.64199 -27.38298,-13.82199c-4.914,-3.898 -11.17499,-10.80299 -14.69599,-16.20699c-2.2,-3.378 -2.002,-3.273 0.73,0.385c2.075,2.78 5.816,6.72799 8.32099,8.78299c9.16999,7.52099 25.23398,14.79699 38.24997,17.32499c14.30799,2.778 27.87298,1.836 42.42997,-2.948c4.613,-1.516 8.65299,-3.226 14.32799,-6.066c11.41199,-5.711 19.17998,-12.19899 24.78398,-20.69898z" fill="#816040"></path>

</g></g></g></g>

</svg>